<?xml version="1.0" encoding="UTF-8"?>
<svg width="1024" height="1024" viewBox="0 0 1024 1024" xmlns="http://www.w3.org/2000/svg">
  <defs>
    <linearGradient id="iconBg" x1="0%" y1="0%" x2="100%" y2="100%">
      <stop offset="0%" style="stop-color:#2D6CDF"/>
      <stop offset="100%" style="stop-color:#1a4fa8"/>
    </linearGradient>
  </defs>
  <rect width="1024" height="1024" rx="200" fill="url(#iconBg)"/>
  <g transform="translate(512, 480)">
    <!-- Building -->
    <rect x="-180" y="-280" width="360" height="420" rx="30" fill="white"/>
    <!-- Windows Row 1 -->
    <rect x="-140" y="-240" width="70" height="60" rx="8" fill="#2D6CDF" opacity="0.3"/>
    <rect x="-35" y="-240" width="70" height="60" rx="8" fill="#2D6CDF" opacity="0.3"/>
    <rect x="70" y="-240" width="70" height="60" rx="8" fill="#2D6CDF" opacity="0.3"/>
    <!-- Windows Row 2 -->
    <rect x="-140" y="-160" width="70" height="60" rx="8" fill="#2D6CDF" opacity="0.3"/>
    <rect x="-35" y="-160" width="70" height="60" rx="8" fill="#2D6CDF" opacity="0.3"/>
    <rect x="70" y="-160" width="70" height="60" rx="8" fill="#2D6CDF" opacity="0.3"/>
    <!-- Windows Row 3 -->
    <rect x="-140" y="-80" width="70" height="60" rx="8" fill="#2D6CDF" opacity="0.3"/>
    <rect x="-35" y="-80" width="70" height="60" rx="8" fill="#2D6CDF" opacity="0.3"/>
    <rect x="70" y="-80" width="70" height="60" rx="8" fill="#2D6CDF" opacity="0.3"/>
    <!-- Entrance -->
    <rect x="-50" y="20" width="100" height="120" rx="10" fill="#2D6CDF"/>
    <!-- Checkmark badge -->
    <circle cx="200" cy="80" r="100" fill="#28a745"/>
    <path d="M150 80 L180 110 L250 40" stroke="white" stroke-width="20" stroke-linecap="round" stroke-linejoin="round" fill="none"/>
  </g>
</svg>
