<?xml version="1.0" encoding="UTF-8"?>
<svg width="1024" height="1024" viewBox="0 0 1024 1024" xmlns="http://www.w3.org/2000/svg">
  <defs>
    <linearGradient id="bg" x1="0%" y1="0%" x2="100%" y2="100%">
      <stop offset="0%" style="stop-color:#2D6CDF"/>
      <stop offset="100%" style="stop-color:#1a4fa8"/>
    </linearGradient>
  </defs>
  <rect width="1024" height="1024" fill="url(#bg)"/>
  <g transform="translate(512, 450)">
    <!-- Building Icon -->
    <rect x="-150" y="-200" width="300" height="350" rx="20" fill="white"/>
    <rect x="-120" y="-170" width="60" height="50" rx="5" fill="#2D6CDF" opacity="0.3"/>
    <rect x="-30" y="-170" width="60" height="50" rx="5" fill="#2D6CDF" opacity="0.3"/>
    <rect x="60" y="-170" width="60" height="50" rx="5" fill="#2D6CDF" opacity="0.3"/>
    <rect x="-120" y="-100" width="60" height="50" rx="5" fill="#2D6CDF" opacity="0.3"/>
    <rect x="-30" y="-100" width="60" height="50" rx="5" fill="#2D6CDF" opacity="0.3"/>
    <rect x="60" y="-100" width="60" height="50" rx="5" fill="#2D6CDF" opacity="0.3"/>
    <rect x="-120" y="-30" width="60" height="50" rx="5" fill="#2D6CDF" opacity="0.3"/>
    <rect x="-30" y="-30" width="60" height="50" rx="5" fill="#2D6CDF" opacity="0.3"/>
    <rect x="60" y="-30" width="60" height="50" rx="5" fill="#2D6CDF" opacity="0.3"/>
    <!-- Door -->
    <rect x="-40" y="50" width="80" height="100" rx="5" fill="#2D6CDF"/>
    <!-- Wrench Icon -->
    <circle cx="180" cy="100" r="80" fill="#28a745"/>
    <path d="M160 80 L200 120 M160 120 L200 80" stroke="white" stroke-width="12" stroke-linecap="round"/>
  </g>
  <text x="512" y="680" text-anchor="middle" fill="white" font-size="72" font-weight="bold" font-family="Arial, sans-serif">FixMyCondo</text>
  <text x="512" y="740" text-anchor="middle" fill="white" font-size="28" opacity="0.8" font-family="Arial, sans-serif">Maintenance Made Easy</text>
</svg>
